<svg id="Capa_1" data-name="Capa 1" xmlns="http://www.w3.org/2000/svg" xmlns:xlink="http://www.w3.org/1999/xlink" viewBox="0 0 8191.9 969.6"><defs><linearGradient id="Degradado_sin_nombre" x1="-10.98" y1="687.03" x2="8208.18" y2="687.03" gradientTransform="matrix(1, 0, 0, -1, 11.79, 972.67)" gradientUnits="userSpaceOnUse"><stop offset="0" stop-color="#a86b1d"/><stop offset="0.11" stop-color="#c49642"/><stop offset="0.22" stop-color="#dab960"/><stop offset="0.33" stop-color="#ebd275"/><stop offset="0.42" stop-color="#f5e182"/><stop offset="0.5" stop-color="#f8e687"/><stop offset="0.62" stop-color="#f6e181"/><stop offset="0.77" stop-color="#f1d370"/><stop offset="0.95" stop-color="#e9bd54"/><stop offset="1" stop-color="#e6b54a"/></linearGradient><linearGradient id="Degradado_sin_nombre_2" x1="-11.13" y1="272.57" x2="8208.47" y2="272.57" xlink:href="#Degradado_sin_nombre"/><linearGradient id="Degradado_sin_nombre_3" x1="-11.83" y1="529.43" x2="8206.47" y2="529.43" xlink:href="#Degradado_sin_nombre"/></defs><title>lines_01</title><path d="M8190.31,5.07C6914.33,521,5272,311.41,5272,311.41,2394.3,139.2,795.14,372.4,1.69,570.81" transform="translate(0 -1.82)" fill="none" stroke-miterlimit="10" stroke-width="7" stroke="url(#Degradado_sin_nombre)"/><path d="M1.59,850.64c1424.86,376,4496.52-272.26,4496.52-272.26C6376.19,133.13,8190.6,861,8190.6,861" transform="translate(0 -1.82)" fill="none" stroke-miterlimit="10" stroke-width="7" stroke="url(#Degradado_sin_nombre_2)"/><path d="M.9,295.46c1424.66-376,4495.81,272.26,4495.81,272.26C6374.5,1013.07,8188.61,285.1,8188.61,285.1" transform="translate(0 -1.82)" fill="none" stroke-miterlimit="10" stroke-width="7" stroke="url(#Degradado_sin_nombre_3)"/></svg>