<?xml version="1.0" encoding="utf-8"?>
<!-- Generator: Adobe Illustrator 25.4.2, SVG Export Plug-In . SVG Version: 6.00 Build 0)  -->
<svg version="1.1" id="Capa_1" xmlns="http://www.w3.org/2000/svg" xmlns:xlink="http://www.w3.org/1999/xlink" x="0px" y="0px"
	 viewBox="0 0 8218 1463.3" style="enable-background:new 0 0 8218 1463.3;" xml:space="preserve">
<style type="text/css">
	.st0{fill:#74617E;}
	.st1{fill:#F9FAF5;}
</style>
<g>
	<path class="st0" d="M2760.4,1278.4C1314.6,1560.4,477.1,1170.7,0,706.3c407.8,102.1,1198.1,197.1,2478.2-42
		c1916-358,4507.3-1182.2,5735.1-197.6C6740.3,84.9,4766.8,887.1,2760.4,1278.4z"/>
	<g>
		<path class="st1" d="M8.9,705.7v0.9c1,0.3,2.1,0.5,3.1,0.8L8.9,705.7z"/>
		<path class="st1" d="M8218,468.9l-5.1-2.6c0.1,0.1,0.2,0.2,0.3,0.3C6741.7,84.9,4770,887.1,2765.5,1278.4
			C1322.3,1560.1,485.7,1171.4,8.9,707.5v755.8H8218V468.9z"/>
	</g>
</g>
</svg>
