<svg id="Capa_1" data-name="Capa 1" xmlns="http://www.w3.org/2000/svg" xmlns:xlink="http://www.w3.org/1999/xlink" viewBox="0 0 8192 1458.67"><defs><linearGradient id="Degradado_sin_nombre" y1="777" x2="8187.4" y2="777" gradientTransform="matrix(1, 0, 0, -1, 0, 1464)" gradientUnits="userSpaceOnUse"><stop offset="0" stop-color="#e6c6a3"/><stop offset="1" stop-color="#af8566"/></linearGradient></defs><title>waves_01</title><path d="M2751.7,1276.7C1310.4,1557.8,475.6,1169.3,0,706.4c406.5,101.8,1194.3,196.5,2470.4-41.9,1909.9-356.9,4493-1178.5,5717-197C6719,86.9,4751.7,886.6,2751.7,1276.7Z" transform="translate(0 -2.33)" fill="url(#Degradado_sin_nombre)"/><path d="M8.9,705.8v.9c1,.3,2.1.5,3.1.8Z" transform="translate(0 -2.33)" fill="#f9faf5"/><path d="M8192,469.7l-5.1-2.6.3.3C6720.4,86.9,4754.9,886.6,2756.8,1276.7,1318.1,1557.5,484.2,1170,8.9,707.6V1461H8192Z" transform="translate(0 -2.33)" fill="#F9FAF5"/></svg>